<svg width="200" height="200" viewBox="0 0 200 200" fill="none" xmlns="http://www.w3.org/2000/svg">
<defs>
<linearGradient id="scylla_gradient" x1="20" y1="180" x2="180" y2="20" gradientUnits="userSpaceOnUse">
<stop offset="0%" stop-color="#4F46E5" /> <stop offset="100%" stop-color="#06B6D4" /> </linearGradient>
</defs>
<g fill="url(#scylla_gradient)">
<circle cx="100" cy="100" r="18" />

<path d="M100 78 C 100 60, 115 40, 130 35 L 134 31 A 6 6 0 0 1 146 38 A 6 6 0 0 1 139 47 L 135 51 C 120 55, 108 70, 104 78 Z" transform="rotate(0 100 100)"/>
<path d="M100 78 C 100 60, 115 40, 130 35 L 134 31 A 6 6 0 0 1 146 38 A 6 6 0 0 1 139 47 L 135 51 C 120 55, 108 70, 104 78 Z" transform="rotate(60 100 100)"/>
<path d="M100 78 C 100 60, 115 40, 130 35 L 134 31 A 6 6 0 0 1 146 38 A 6 6 0 0 1 139 47 L 135 51 C 120 55, 108 70, 104 78 Z" transform="rotate(120 100 100)"/>
<path d="M100 78 C 100 60, 115 40, 130 35 L 134 31 A 6 6 0 0 1 146 38 A 6 6 0 0 1 139 47 L 135 51 C 120 55, 108 70, 104 78 Z" transform="rotate(180 100 100)"/>
<path d="M100 78 C 100 60, 115 40, 130 35 L 134 31 A 6 6 0 0 1 146 38 A 6 6 0 0 1 139 47 L 135 51 C 120 55, 108 70, 104 78 Z" transform="rotate(240 100 100)"/>
<path d="M100 78 C 100 60, 115 40, 130 35 L 134 31 A 6 6 0 0 1 146 38 A 6 6 0 0 1 139 47 L 135 51 C 120 55, 108 70, 104 78 Z" transform="rotate(300 100 100)"/>
</g>
</svg>